<svg xmlns="http://www.w3.org/2000/svg" viewBox="0 0 64 64">
  <defs>
    <linearGradient id="metal" x1="12" y1="9" x2="52" y2="56" gradientUnits="userSpaceOnUse">
      <stop stop-color="#f0dfc5"/>
      <stop offset=".48" stop-color="#c6a982"/>
      <stop offset="1" stop-color="#8e7354"/>
    </linearGradient>
  </defs>
  <rect width="64" height="64" rx="16" fill="#070707"/>
  <path d="M7 28.3 25 9h11.3C50.4 9 60 18.7 60 32.6c0 12.2-7.3 20.8-18 22.8V44.7c5.6-1.7 9-6.1 9-12.1C51 24.3 45.4 18 36.3 18h-7.4L15.7 32.3H7v-4Z" fill="url(#metal)"/>
  <path d="m19.7 36.8 18.4-12.5V59h-9.5V36.8h-8.9Z" fill="url(#metal)"/>
  <g fill="url(#metal)" opacity=".72">
    <path d="M6 54.4h3.1V59H6z"/>
    <path d="M11.8 50.3h3.1V59h-3.1z"/>
    <path d="M17.7 45.7h3.1V59h-3.1z"/>
    <path d="M23.5 40.4h3.1V59h-3.1z"/>
  </g>
</svg>
